<svg version="1.0" xmlns="http://www.w3.org/2000/svg" width="65.333" height="57.333" viewBox="0 0 49 43"><path d="M0 18.5V37h2.5C5 37 5 36.9 5 28.5c0-8.3.1-8.5 2.4-8.5 1.9 0 2.3-.4 1.9-2-.3-1.1-1.4-2-2.4-2-1.7 0-1.9-.8-1.9-6V4h3c2.3 0 3-.4 3-2 0-1.8-.7-2-5.5-2H0v18.5zm13 0V37h5V0h-5v18.5zm8 0V37h2.5c2.5 0 2.5-.1 2.5-8.5 0-8.3.1-8.5 2.4-8.5 2 0 2.4.6 3 4.6.3 2.6.6 6.4.6 8.5 0 3.3.3 3.9 2.1 3.9 2.1 0 2.1-.2 1.6-14.3-.3-8.8-1-15.7-1.9-18.2-1.5-4-1.5-4-7.1-4.3L21-.1v18.6zm7.8-12.8c.6 1 1.3 3.7 1.7 6 .6 4.1.6 4.3-1.8 4.3-2.3 0-2.5-.4-2.9-5.6-.1-3.1-.1-5.8.1-6 .9-.9 2.1-.3 2.9 1.3zM36 2c0 1.3.7 2 2 2 1.9 0 2 .7 2 16.5V37h5V20.5C45 4.7 45.1 4 47 4c1.3 0 2-.7 2-2 0-1.8-.7-2-6.5-2S36 .2 36 2zM0 40.6c0 .8.5 1.2 1 .9.6-.3 1-1 1-1.6 0-.5-.4-.9-1-.9-.5 0-1 .7-1 1.6zm4.5-.5c-1 1.5.3 2.5 1.6 1.2.7-.7.7-1.3.1-1.7-.6-.3-1.4-.1-1.7.5zm4-.1c-.8 1.3.4 3.2 1.6 2.5 1.2-.8 1.2-3.5 0-3.5-.6 0-1.3.4-1.6 1zm4.5.6c0 .8.5 1.2 1 .9.6-.4.8-1.1.5-1.6-.9-1.4-1.5-1.1-1.5.7zm9-.1c0 .8.4 1.5 1 1.5.5 0 .7-.7.4-1.5-.4-.8-.8-1.5-1-1.5-.2 0-.4.7-.4 1.5zm4 0c0 .8.5 1.5 1 1.5.6 0 1-.7 1-1.5s-.4-1.5-1-1.5c-.5 0-1 .7-1 1.5zm7.2-.1c.1 1 .8 1.7 1.3 1.7 1.5-.1 1.2-2.4-.3-2.9-.9-.3-1.3.2-1 1.2zm3.8.1c0 .8.7 1.5 1.5 1.5s1.5-.4 1.5-.9-.7-1.1-1.5-1.5c-.9-.3-1.5 0-1.5.9zm5.6 0c-.3.9 0 1.5.9 1.5s1.2-.6.9-1.5c-.4-.8-.7-1.5-.9-1.5-.2 0-.5.7-.9 1.5zM17 41c0 .5.5 1 1 1 .6 0 1-.5 1-1 0-.6-.4-1-1-1-.5 0-1 .4-1 1zm29-.1c0 .6.5 1.3 1 1.6.6.3 1-.1 1-.9 0-.9-.4-1.6-1-1.6-.5 0-1 .4-1 .9z"/></svg>